<svg width="31" height="30" viewBox="0 0 31 30" fill="none" xmlns="http://www.w3.org/2000/svg">
<path d="M9.2675 6C8.546 6 8 6.561 8 7.206V9H6.5V7.206C6.5 5.691 7.76 4.5 9.2675 4.5H24.7325C26.24 4.5 27.5 5.691 27.5 7.206V18.294C27.5 19.809 26.24 21 24.7325 21H15.5V19.5H24.7325C25.454 19.5 26 18.939 26 18.294V7.206C26 6.561 25.454 6 24.7325 6H9.2675ZM15.5 18H19.25C19.4489 18 19.6397 17.921 19.7803 17.7803C19.921 17.6397 20 17.4489 20 17.25C20 17.0511 19.921 16.8603 19.7803 16.7197C19.6397 16.579 19.4489 16.5 19.25 16.5H15.5V18ZM8 22.5C7.80109 22.5 7.61032 22.579 7.46967 22.7197C7.32902 22.8603 7.25 23.0511 7.25 23.25C7.25 23.4489 7.32902 23.6397 7.46967 23.7803C7.61032 23.921 7.80109 24 8 24H9.5C9.69891 24 9.88968 23.921 10.0303 23.7803C10.171 23.6397 10.25 23.4489 10.25 23.25C10.25 23.0511 10.171 22.8603 10.0303 22.7197C9.88968 22.579 9.69891 22.5 9.5 22.5H8ZM3.5 12.75C3.5 12.1533 3.73705 11.581 4.15901 11.159C4.58097 10.7371 5.15326 10.5 5.75 10.5H11.75C12.3467 10.5 12.919 10.7371 13.341 11.159C13.7629 11.581 14 12.1533 14 12.75V24.75C14 25.3467 13.7629 25.919 13.341 26.341C12.919 26.7629 12.3467 27 11.75 27H5.75C5.15326 27 4.58097 26.7629 4.15901 26.341C3.73705 25.919 3.5 25.3467 3.5 24.75V12.75ZM5.75 12C5.55109 12 5.36032 12.079 5.21967 12.2197C5.07902 12.3603 5 12.5511 5 12.75V24.75C5 24.9489 5.07902 25.1397 5.21967 25.2803C5.36032 25.421 5.55109 25.5 5.75 25.5H11.75C11.9489 25.5 12.1397 25.421 12.2803 25.2803C12.421 25.1397 12.5 24.9489 12.5 24.75V12.75C12.5 12.5511 12.421 12.3603 12.2803 12.2197C12.1397 12.079 11.9489 12 11.75 12H5.75Z" fill="#1A954D"/>
</svg>
