<svg width="400" height="400" viewBox="0 0 400 400" fill="none" xmlns="http://www.w3.org/2000/svg">
<rect width="400" height="400" rx="4" fill="url(#paint0_linear_20_837)"/>
<path d="M199.792 218.444C211.344 218.444 220.709 210.12 220.709 199.852C220.709 189.583 211.344 181.259 199.792 181.259C188.24 181.259 178.876 189.583 178.876 199.852C178.876 210.12 188.24 218.444 199.792 218.444Z" fill="white"/>
<path d="M199.792 242.445C170.417 242.445 144.75 239.37 125.542 233.519C113.083 229.741 102.5 224.704 94.9583 218.963C86.9583 212.889 82.7083 206.259 82.7083 199.852C82.7083 187.556 97.875 175.519 123.333 167.667C144.167 161.222 171.333 157.63 199.75 157.63C227.667 157.63 254.458 161.111 275.167 167.482C287.292 171.185 297.5 176 304.75 181.333C312.625 187.185 316.792 193.593 316.792 199.852C316.792 212.63 299.833 225.556 272.5 233.593C253.167 239.296 227.333 242.445 199.792 242.445ZM199.792 166.519C172.833 166.519 146.167 170 126.667 176.037C103.25 183.296 92.75 193.222 92.75 199.852C92.75 206.741 104.042 217.593 128.792 225.111C146.958 230.63 171.542 233.556 199.792 233.556C226.292 233.556 251 230.593 269.375 225.148C295.083 217.556 306.833 206.704 306.833 199.852C306.833 196.333 303.833 192.185 298.375 188.148C292.083 183.482 282.917 179.222 271.958 175.852C252.25 169.852 226.625 166.519 199.792 166.519Z" fill="white"/>
<path d="M152.334 292.519C148.084 292.519 144.334 291.704 141.167 290.074C129.209 283.926 125.042 266.222 130.084 242.704C134.209 223.408 144.292 200.741 158.5 178.852C172.459 157.371 189.209 138.482 205.75 125.704C215.417 118.222 225.209 112.741 234.042 109.852C243.667 106.704 252 106.704 258.084 109.815C270.542 116.185 274.667 135.741 268.834 160.778C264.709 178.556 254.875 200 241.125 221.222C226.459 243.815 210.625 262.037 195.334 273.926C185.417 281.63 175.209 287.259 165.875 290.185C161 291.741 156.417 292.519 152.334 292.519ZM162.792 181.074L167.125 183.296C153.667 204.037 143.709 226.296 139.875 244.371C135.25 266.037 139.709 279.074 146.125 282.371C147.709 283.185 149.792 283.63 152.334 283.63C160.625 283.63 173.667 278.963 188.75 267.259C203.209 256.037 218.334 238.556 232.459 216.815C245.709 196.408 255.125 175.889 259.042 159.037C264.5 135.445 259.792 121 253.084 117.556C249.667 115.815 244.125 116.037 237.459 118.222C229.75 120.741 221.042 125.667 212.292 132.445C196.584 144.593 180.542 162.667 167.125 183.333L162.792 181.074Z" fill="white"/>
<path d="M247.251 292.63C235.917 292.63 221.542 286.556 206.542 275.074C189.792 262.259 172.751 243.185 158.501 221.296C144.501 199.815 134.501 177.482 130.292 158.333C127.834 147.148 127.376 136.889 128.959 128.63C130.709 119.63 134.834 113.222 140.959 110.074C153.376 103.667 174.501 110.259 196.001 127.259C211.251 139.296 227.251 157.593 241.042 178.778C255.751 201.37 265.626 222.667 269.542 240.37C272.084 251.852 272.501 262.519 270.709 271.185C268.792 280.408 264.459 286.963 258.209 290.185C255.084 291.815 251.376 292.63 247.251 292.63ZM167.167 216.852C180.667 237.593 197.417 256.37 213.084 268.333C231.876 282.704 246.792 285.815 253.251 282.482C259.959 279.037 264.876 264.926 259.792 242.111C256.042 225.37 246.584 205 232.417 183.259C219.126 162.852 203.834 145.333 189.376 133.926C169.126 117.926 152.709 114.333 146.001 117.778C142.584 119.519 140.042 123.926 138.834 130.148C137.459 137.333 137.876 146.519 140.126 156.63C144.126 174.815 153.709 196.185 167.167 216.852Z" fill="white"/>
<defs>
<linearGradient id="paint0_linear_20_837" x1="400" y1="400" x2="51.6843" y2="-40.837" gradientUnits="userSpaceOnUse">
<stop stop-color="#4481EB"/>
<stop offset="1" stop-color="#04BEFE"/>
</linearGradient>
</defs>
</svg>
